<?xml version="1.0" standalone="no"?>
<!DOCTYPE svg PUBLIC "-//W3C//DTD SVG 20010904//EN"
 "http://www.w3.org/TR/2001/REC-SVG-20010904/DTD/svg10.dtd">
<svg version="1.0" xmlns="http://www.w3.org/2000/svg"
 width="512.000000pt" height="512.000000pt" viewBox="0 0 512.000000 512.000000"
 preserveAspectRatio="xMidYMid meet">
<metadata>
Created by potrace 1.11, written by Peter Selinger 2001-2013
</metadata>
<g transform="translate(0.000000,512.000000) scale(0.100000,-0.100000)"
fill="#000000" stroke="none">
<path d="M0 2560 l0 -2560 2560 0 2560 0 0 2560 0 2560 -2560 0 -2560 0 0
-2560z m715 1850 c49 -49 87 -90 85 -90 -3 0 -46 41 -95 90 -49 50 -87 90 -85
90 3 0 46 -40 95 -90z m1785 -785 c0 -2 -25 -122 -56 -267 -31 -145 -82 -382
-113 -528 l-56 -265 -116 -3 -116 -3 89 417 c48 230 87 418 86 420 -2 1 -52
-9 -113 -21 -60 -13 -111 -22 -113 -20 -5 5 30 169 39 179 4 4 108 28 231 51
251 49 238 47 238 40z m846 -32 c-6 -18 -36 -161 -36 -169 0 -2 -88 -4 -195
-4 -107 0 -195 -2 -195 -4 0 -2 -9 -48 -20 -101 -11 -53 -20 -98 -20 -100 0
-1 35 -5 79 -8 128 -8 214 -59 257 -152 19 -40 24 -67 24 -136 0 -79 -3 -92
-35 -157 -61 -122 -167 -191 -323 -214 -92 -13 -231 -1 -313 27 l-47 16 20 92
c11 51 21 93 22 94 2 2 20 -6 42 -16 56 -27 156 -45 218 -38 128 13 209 101
186 202 -19 85 -81 110 -255 103 -101 -4 -115 -2 -111 11 3 9 31 141 62 294
l58 277 294 0 c275 0 293 -1 288 -17z m14 -1397 c0 -2 -21 -102 -47 -222 -25
-121 -47 -232 -47 -249 -1 -27 3 -30 31 -33 30 -3 32 -5 26 -35 -8 -43 -14
-48 -65 -54 -56 -6 -105 17 -114 53 -4 14 -4 49 -1 78 4 45 81 419 92 454 3 8
25 12 65 12 33 0 60 -2 60 -4z m-1609 -37 c92 -31 133 -131 94 -227 -36 -86
-102 -124 -227 -130 l-87 -4 -16 -77 c-9 -42 -19 -84 -22 -93 -3 -15 -16 -18
-64 -18 -40 0 -59 4 -59 13 0 6 25 132 57 280 l56 267 117 0 c64 0 132 -5 151
-11z m1949 -157 c21 -10 42 -32 53 -55 17 -33 17 -42 5 -80 -17 -55 -68 -83
-177 -99 -87 -12 -97 -22 -61 -58 24 -24 76 -26 144 -6 43 13 46 13 42 -2 -2
-10 -7 -29 -10 -43 -8 -36 -55 -54 -141 -54 -55 0 -78 5 -106 23 -92 57 -92
214 0 313 70 76 173 101 251 61z m-1650 -7 c0 -9 -12 -67 -26 -130 -31 -138
-29 -169 7 -173 56 -6 107 65 128 178 7 36 17 82 22 103 l10 37 59 0 c33 0 60
-4 60 -9 0 -5 -14 -70 -30 -143 -17 -73 -33 -159 -37 -190 l-6 -58 -63 0 -63
0 6 38 6 37 -35 -31 c-64 -56 -145 -68 -190 -28 -36 34 -33 82 19 317 l15 67
59 0 c46 0 59 -3 59 -15z m684 -12 c-8 -33 -26 -54 -154 -185 l-95 -98 94 0
94 0 -7 -31 c-3 -17 -6 -38 -6 -45 0 -11 -34 -14 -184 -14 l-183 0 5 25 c2 14
58 81 129 155 l125 130 -87 0 -86 0 7 38 c4 20 9 40 11 45 2 4 81 7 174 7
l169 0 -6 -27z m390 0 c-8 -33 -26 -54 -154 -185 l-95 -98 94 0 94 0 -7 -31
c-3 -17 -6 -38 -6 -45 0 -11 -34 -14 -184 -14 l-183 0 5 25 c2 14 58 81 129
155 l125 130 -87 0 -86 0 7 38 c4 20 9 40 11 45 2 4 81 7 174 7 l169 0 -6 -27z"/>
<path d="M1585 2048 c-3 -13 -11 -52 -19 -87 l-15 -63 60 4 c75 5 110 35 112
93 1 50 -29 75 -89 75 -37 0 -44 -3 -49 -22z"/>
<path d="M3562 1924 c-19 -13 -52 -63 -52 -79 0 -10 61 -5 94 9 19 8 37 24 41
36 14 44 -38 66 -83 34z"/>
</g>
</svg>
